<svg xmlns="http://www.w3.org/2000/svg" xmlns:xlink="http://www.w3.org/1999/xlink" width="200" height="200" viewBox="0 0 200 200">
  <defs>
    <clipPath id="clip-path">
      <rect id="Rectangle_1" data-name="Rectangle 1" width="200" height="200" transform="translate(584 280)" fill="#fff" stroke="#707070" stroke-width="1"/>
    </clipPath>
  </defs>
  <g id="Mask_Group_2" data-name="Mask Group 2" transform="translate(-584 -280)" clip-path="url(#clip-path)">
    <g id="adobe-xd" transform="translate(608 306)">
      <path id="Path_1" data-name="Path 1" d="M10,10H149.333V145.533H10Z" transform="translate(-3.667 -3.667)" fill="#2e001e"/>
      <path id="Path_2" data-name="Path 2" d="M0,0V148.2H152V0ZM6.333,6.333H145.667V141.867H6.333Z" fill="#ff2bc2"/>
      <path id="Path_3" data-name="Path 3" d="M126.966,82.607a8.7,8.7,0,0,0-3.673-.633c-7.98,0-13.3,6.143-13.3,16.34,0,11.653,5.447,16.34,12.54,16.34a11.949,11.949,0,0,0,4.37-.7V82.607ZM98.592,98.82c0-14.757,9.5-26.283,25.08-26.283a28.086,28.086,0,0,1,3.293.127V56.2a.635.635,0,0,1,.633-.633h10.2c.507,0,.633.19.633.507v57.887a45.111,45.111,0,0,0,.317,6.207c0,.443,0,.507-.38.7a37.726,37.726,0,0,1-16.213,3.673c-13.743,0-23.56-8.487-23.56-25.713ZM77,88.56l17.733,34.39c.317.507.127,1.013-.38,1.013H83.329A1.243,1.243,0,0,1,82,123.14q-6.08-12.54-12.413-26.03h-.127c-3.8,8.487-7.98,17.733-12.033,26.093a1.216,1.216,0,0,1-1.14.7H45.772c-.633,0-.7-.507-.38-.887L62.746,89.637,45.962,56.45a.561.561,0,0,1,.443-.95H57.3c.633,0,.95.127,1.14.7,3.99,8.423,8.043,16.72,11.843,25.207h.127c3.673-8.36,7.727-16.783,11.59-25.08.317-.507.507-.823,1.14-.823h10.2c.507,0,.7.38.38.95Z" transform="translate(-16.576 -20.35)" fill="#ff2bc2"/>
    </g>
  </g>
</svg>
