<svg xmlns="http://www.w3.org/2000/svg" xmlns:xlink="http://www.w3.org/1999/xlink" width="200" height="200" viewBox="0 0 200 200">
  <defs>
    <clipPath id="clip-path">
      <rect id="Rectangle_9" data-name="Rectangle 9" width="200" height="200" transform="translate(80 528)" fill="#fff" stroke="#707070" stroke-width="1"/>
    </clipPath>
  </defs>
  <g id="Mask_Group_9" data-name="Mask Group 9" transform="translate(-80 -528)" clip-path="url(#clip-path)">
    <g id="bootstrap-4" transform="translate(104 552)">
      <path id="Path_24" data-name="Path 24" d="M0,132.4A19.6,19.6,0,0,0,19.6,152H132.4A19.6,19.6,0,0,0,152,132.4V19.6A19.6,19.6,0,0,0,132.4,0H19.6A19.6,19.6,0,0,0,0,19.6V132.4Z" fill="#563d7c"/>
      <path id="Path_25" data-name="Path 25" d="M92.312,87.751V66.225h18.947a29.472,29.472,0,0,1,5.22.451,13.029,13.029,0,0,1,4.447,1.611,8.592,8.592,0,0,1,3.093,3.222,10.7,10.7,0,0,1,1.16,5.284q0,5.8-3.481,8.378a14.546,14.546,0,0,1-8.894,2.578H92.312ZM72.075,50.5v92.031h44.6a47.052,47.052,0,0,0,12.052-1.547,32.233,32.233,0,0,0,10.441-4.769,23.491,23.491,0,0,0,7.282-8.314,25.324,25.324,0,0,0,2.707-12.052,25.5,25.5,0,0,0-4.189-14.758q-4.189-6.123-12.7-8.572a22.938,22.938,0,0,0,9.346-7.6,20.16,20.16,0,0,0,3.158-11.6,24.686,24.686,0,0,0-2.127-10.827,17.687,17.687,0,0,0-5.994-7.025,25.869,25.869,0,0,0-9.28-3.8,57.294,57.294,0,0,0-11.987-1.16Zm20.237,76.306V101.542h22.041q6.574,0,10.57,3.029t4,10.118a12.648,12.648,0,0,1-1.225,5.929,9.726,9.726,0,0,1-3.287,3.674,13.92,13.92,0,0,1-4.769,1.934,27.059,27.059,0,0,1-5.672.579H92.312Z" transform="translate(-29.28 -20.516)" fill="#fff"/>
    </g>
  </g>
</svg>
