<svg xmlns="http://www.w3.org/2000/svg" xmlns:xlink="http://www.w3.org/1999/xlink" width="200" height="200" viewBox="0 0 200 200">
  <defs>
    <clipPath id="clip-path">
      <rect id="Rectangle_14" data-name="Rectangle 14" width="200" height="200" transform="translate(304 760)" fill="#fff" stroke="#707070" stroke-width="1"/>
    </clipPath>
  </defs>
  <g id="Mask_Group_15" data-name="Mask Group 15" transform="translate(-304 -760)" clip-path="url(#clip-path)">
    <g id="chartjs-logo" transform="translate(311.292 768)">
      <path id="Path_30" data-name="Path 30" d="M155.861,95.509c-21.25.417-16.824,13.869-31.8,17.271-15.213,3.456-17.615-37.155-32.824-37.155s-18.581,39.45-37.628,66.532l-.543.767L93.9,166.5l61.959-35.768Z" transform="translate(-1.318 -2.981)" fill="#36a2eb"/>
      <path id="Path_31" data-name="Path 31" d="M154.984,94.234c-7.114-9.13-11.939-19.625-22.319-19.625-18.37,0-13.537,29.968-33.839,29.968s-22.439-32.234-45.44-1.933a161.694,161.694,0,0,0-17.863,30.607l57.5,33.2,61.959-35.768Z" transform="translate(-0.441 -2.93)" fill="#ffce56"/>
      <path id="Path_32" data-name="Path 32" d="M30.829,106.5c6.971-19.3,9.98-34.94,23.288-34.94,20.3,0,25.135,57.037,42.54,51.234s15.468-36.736,42.54-36.736c5.153,0,10.414,3.157,15.552,8.263v36.207L92.791,166.293,30.83,130.524V106.5Z" transform="translate(-0.206 -2.778)" fill="#fe6184" opacity="0.8"/>
      <path id="Path_33" data-name="Path 33" d="M92.535,168,26.708,130V54L92.535,16l65.827,38v76ZM34.442,125.536l58.093,33.536,58.093-33.536V58.465L92.535,24.929,34.442,58.465Z" fill="#e7e9ed"/>
    </g>
  </g>
</svg>
