<svg xmlns="http://www.w3.org/2000/svg" xmlns:xlink="http://www.w3.org/1999/xlink" width="200" height="200" viewBox="0 0 200 200">
  <defs>
    <clipPath id="clip-path">
      <rect id="Rectangle_11" data-name="Rectangle 11" width="200" height="200" transform="translate(528 528)" fill="#fff" stroke="#707070" stroke-width="1"/>
    </clipPath>
    <linearGradient id="linear-gradient" x1="-0.835" y1="-0.927" x2="1.017" y2="1.075" gradientUnits="objectBoundingBox">
      <stop offset="0" stop-color="#f9a03c"/>
      <stop offset="1" stop-color="#f7974e"/>
    </linearGradient>
    <linearGradient id="linear-gradient-2" x1="-2.591" y1="-2.493" x2="0.984" y2="0.976" xlink:href="#linear-gradient"/>
    <linearGradient id="linear-gradient-3" x1="-2.246" y1="-2.586" x2="0.882" y2="1.101" xlink:href="#linear-gradient"/>
    <linearGradient id="linear-gradient-4" x1="0.11" y1="-0.019" x2="0.802" y2="0.947" gradientUnits="objectBoundingBox">
      <stop offset="0" stop-color="#f26d58"/>
      <stop offset="1" stop-color="#f9a03c"/>
    </linearGradient>
    <linearGradient id="linear-gradient-5" x1="0.191" y1="0.037" x2="1.278" y2="0.694" gradientUnits="objectBoundingBox">
      <stop offset="0" stop-color="#b84e51"/>
      <stop offset="1" stop-color="#f68e48"/>
    </linearGradient>
    <linearGradient id="linear-gradient-6" x1="0.34" y1="0.941" x2="0.376" y2="2.653" xlink:href="#linear-gradient"/>
  </defs>
  <g id="Mask_Group_11" data-name="Mask Group 11" transform="translate(-528 -528)" clip-path="url(#clip-path)">
    <g id="g4600" transform="translate(552 556)">
      <path id="path34" d="M69.435,59.46c.068-.662.117-1.33.155-2,.046-.8-47.849-46.238-47.849-46.238H20.6s48.546,51.207,48.839,48.24Z" transform="translate(82.329 44.848)" fill="url(#linear-gradient)"/>
      <path id="path36" d="M10.3,17.773c-.064.14-.127.279-.192.418s-.138.292-.207.436C8.373,21.81,31.273,44.2,33.115,41.478c.084-.12.168-.247.252-.367.093-.143.185-.279.277-.422C35.117,38.453,10.952,16.319,10.3,17.773Z" transform="translate(39.279 70.771)" fill="url(#linear-gradient-2)"/>
      <path id="path38" d="M17.154,24.018a6.387,6.387,0,0,1-.947,1.333c-.071.143,22.356,22.385,22.356,22.385h2.019S19.529,24.958,17.154,24.018Z" transform="translate(64.785 96.008)" fill="url(#linear-gradient-3)"/>
      <path id="path40" d="M151.951,101.9a43.888,43.888,0,0,1-43.785,41.842h-3.178L81.519,120.623a84.114,84.114,0,0,0,5.323-8.484h21.324a12.232,12.232,0,0,0,0-24.464H95.547a84.3,84.3,0,0,0,1.487-15.685A83.946,83.946,0,0,0,95.5,56.066h7.838l48.472,47.761c.058-.64.1-1.28.138-1.926ZM12.75,0H0V31.605H12.75A40.432,40.432,0,0,1,53.138,71.989a40.151,40.151,0,0,1-3.753,16.973l23.261,22.92a71.563,71.563,0,0,0,12.1-39.893A72.076,72.076,0,0,0,12.75,0Z" fill="url(#linear-gradient-4)"/>
      <path id="path42" d="M62.943,0H11.313A84.853,84.853,0,0,1,41.481,31.605H62.943a12.231,12.231,0,1,1,0,24.463H58.12l48.472,47.761c.114-1.3.185-2.6.185-3.923A43.616,43.616,0,0,0,96.606,71.87,43.8,43.8,0,0,0,62.943,0Z" transform="translate(45.223)" fill="url(#linear-gradient-5)"/>
      <path id="path44" d="M104.988,72.584H56.9A85.015,85.015,0,0,0,81.519,49.463ZM72.646,40.722,49.388,17.8A40.442,40.442,0,0,1,12.75,41.216H0v31.6H12.75A71.982,71.982,0,0,0,72.646,40.722Z" transform="translate(0 71.16)" fill="url(#linear-gradient-6)"/>
    </g>
  </g>
</svg>
