<svg xmlns="http://www.w3.org/2000/svg" xmlns:xlink="http://www.w3.org/1999/xlink" width="200" height="200" viewBox="0 0 200 200">
  <defs>
    <clipPath id="clip-path">
      <rect id="Rectangle_5" data-name="Rectangle 5" width="200" height="200" transform="translate(584 512)" fill="#fff" stroke="#707070" stroke-width="1"/>
    </clipPath>
  </defs>
  <g id="Mask_Group_5" data-name="Mask Group 5" transform="translate(-584 -512)" clip-path="url(#clip-path)">
    <g id="javascript" transform="translate(608 536)">
      <path id="Path_4" data-name="Path 4" d="M0,0H152V152H0Z" fill="#f7df1e"/>
      <path id="Path_5" data-name="Path 5" d="M67.312,174.209l11.632-7.039c2.244,3.979,4.286,7.345,9.182,7.345,4.694,0,7.653-1.836,7.653-8.977V116.97h14.284v48.769c0,14.794-8.672,21.529-21.325,21.529-11.427,0-18.06-5.918-21.427-13.06m50.51-1.53,11.63-6.734c3.062,5,7.041,8.673,14.081,8.673,5.919,0,9.693-2.959,9.693-7.041,0-4.9-3.877-6.632-10.407-9.488l-3.57-1.532c-10.306-4.386-17.142-9.9-17.142-21.528,0-10.714,8.162-18.877,20.917-18.877,9.081,0,15.611,3.164,20.3,11.428L152.2,134.724c-2.449-4.387-5.1-6.122-9.182-6.122-4.184,0-6.836,2.653-6.836,6.122,0,4.285,2.653,6.021,8.774,8.674l3.571,1.53c12.142,5.2,18.978,10.509,18.978,22.446,0,12.857-10.1,19.9-23.671,19.9-13.264,0-21.835-6.326-26.018-14.591" transform="translate(-27.345 -47.187)"/>
    </g>
  </g>
</svg>
