<svg xmlns="http://www.w3.org/2000/svg" xmlns:xlink="http://www.w3.org/1999/xlink" width="200" height="200" viewBox="0 0 200 200">
  <defs>
    <clipPath id="clip-path">
      <rect id="Rectangle_4" data-name="Rectangle 4" width="200" height="200" transform="translate(1256 280)" fill="#fff" stroke="#707070" stroke-width="1"/>
    </clipPath>
  </defs>
  <g id="Mask_Group_4" data-name="Mask Group 4" transform="translate(-1256 -280)" clip-path="url(#clip-path)">
    <path id="laravel-icon" d="M94.416,113.662a2.339,2.339,0,0,1-2.012-1.138L74.7,82.992l-33.114,9a2.339,2.339,0,0,1-2.612-1.176L.278,18.087a2.339,2.339,0,0,1,1.75-3.425l32.853-4.417a2.339,2.339,0,0,1,2.325,1.111l39.662,66.19,46.088-12.533L107.59,43.307a2.339,2.339,0,0,1,1.306-3.634l21.565-5.1a2.339,2.339,0,0,1,2.365.81l18.66,23.275a2.339,2.339,0,0,1-1.216,3.724l-19.6,5.344,17.157,24.177a2.339,2.339,0,0,1-1.138,3.567L95.164,113.494a2.339,2.339,0,0,1-.746.145ZM79.388,81.712l16.048,26.761L142.2,92.1,125.868,69.075ZM5.985,18.818,42.2,86.98l30.055-8.153L33.976,15.1ZM113.452,43.437l14.373,20.268L145.7,58.843,130.15,39.478Z" transform="translate(1279.998 317.777)" fill="#ef533f"/>
  </g>
</svg>
