<svg xmlns="http://www.w3.org/2000/svg" xmlns:xlink="http://www.w3.org/1999/xlink" width="200" height="200" viewBox="0 0 200 200">
  <defs>
    <clipPath id="clip-path">
      <rect id="Rectangle_3" data-name="Rectangle 3" width="200" height="200" transform="translate(1032 280)" fill="#fff" stroke="#707070" stroke-width="1"/>
    </clipPath>
    <clipPath id="clip-path-2">
      <path id="path3446" d="M14.4-345.919c0,21.2,32.666,38.38,72.96,38.38h0c40.294,0,72.96-17.183,72.96-38.38h0c0-21.2-32.666-38.38-72.96-38.38h0c-40.294,0-72.96,17.184-72.96,38.38" transform="translate(-14.4 384.299)"/>
    </clipPath>
    <radialGradient id="radial-gradient" cx="0.628" cy="0.8" r="1.248" gradientTransform="translate(-0.009 0.511) scale(0.526 1)" gradientUnits="objectBoundingBox">
      <stop offset="0" stop-color="#aeb2d5"/>
      <stop offset="0.3" stop-color="#aeb2d5"/>
      <stop offset="0.75" stop-color="#484c89"/>
      <stop offset="1" stop-color="#484c89"/>
    </radialGradient>
    <clipPath id="clip-path-3">
      <path id="path3470" d="M0-405H152v85.5H0Z" transform="translate(0 405)"/>
    </clipPath>
  </defs>
  <g id="Mask_Group_3" data-name="Mask Group 3" transform="translate(-1032 -280)" clip-path="url(#clip-path)">
    <g id="g3438" transform="translate(1056 742.5)">
      <g id="g3440" transform="translate(3.04 -400.63)">
        <g id="g3442" transform="translate(0 0)" clip-path="url(#clip-path-2)">
          <g id="g3448">
            <g id="g3450">
              <path id="path3462" d="M14.4-345.919c0,21.2,32.666,38.38,72.96,38.38h0c40.294,0,72.96-17.183,72.96-38.38h0c0-21.2-32.666-38.38-72.96-38.38h0c-40.294,0-72.96,17.184-72.96,38.38" transform="translate(-14.4 384.299)" fill="url(#radial-gradient)"/>
            </g>
          </g>
        </g>
      </g>
      <g id="g3464" transform="translate(0 -405)">
        <g id="g3466" clip-path="url(#clip-path-3)">
          <g id="g3472" transform="translate(5.89 7.22)">
            <path id="path3474" d="M-261.99-265.542c38.72,0,70.11-15.907,70.11-35.53s-31.39-35.53-70.11-35.53-70.11,15.908-70.11,35.53,31.39,35.53,70.11,35.53" transform="translate(332.1 336.603)" fill="#777bb3"/>
          </g>
        </g>
      </g>
      <g id="g3476" transform="translate(0 -405)">
        <g id="g3478" clip-path="url(#clip-path-3)">
          <g id="g3484" transform="translate(25.247 24.989)">
            <path id="path3486" d="M-65.145-82.833c3.184,0,5.561-.587,7.065-1.745,1.488-1.146,2.515-3.13,3.054-5.9.5-2.588.311-4.395-.568-5.37-.9-1-2.843-1.5-5.777-1.5H-66.46l-2.821,14.514ZM-81.786-64.955a.791.791,0,0,1-.611-.288.791.791,0,0,1-.166-.654l7.475-38.462a.792.792,0,0,1,.777-.64H-58.2c5.063,0,8.832,1.375,11.2,4.087s3.117,6.537,2.186,11.326A18.078,18.078,0,0,1-46.749-84.2a18.033,18.033,0,0,1-3.565,4.468,15.641,15.641,0,0,1-5.868,3.516,26.58,26.58,0,0,1-8.061,1.037h-6.524L-72.631-65.6a.791.791,0,0,1-.777.641Z" transform="translate(82.578 105)"/>
          </g>
          <g id="g3488" transform="translate(24.455 24.197)">
            <path id="path3490" d="M-65.627-34.514h4.435c3.542,0,4.772.777,5.19,1.24.694.769.824,2.39.379,4.689-.5,2.573-1.429,4.4-2.76,5.422-1.362,1.049-3.577,1.58-6.582,1.58H-68.14Zm7.608-9.236H-74.131a1.583,1.583,0,0,0-1.554,1.281L-83.16-4.007A1.584,1.584,0,0,0-82.828-2.7a1.583,1.583,0,0,0,1.222.576h8.378A1.583,1.583,0,0,0-71.673-3.4l1.738-8.945h5.871a27.353,27.353,0,0,0,8.307-1.076,16.432,16.432,0,0,0,6.163-3.69,18.832,18.832,0,0,0,3.716-4.659,18.868,18.868,0,0,0,2.023-5.621c.98-5.041.184-9.078-2.367-12-2.526-2.892-6.5-4.358-11.8-4.358M-70.061-20h5.1q5.067,0,7.547-1.909t3.348-6.375q.832-4.288-.758-6.051T-61.192-36.1h-5.741L-70.061-20m12.042-22.167q7.27,0,10.605,3.816t2,10.655a17.221,17.221,0,0,1-1.851,5.151,17.177,17.177,0,0,1-3.41,4.271,14.8,14.8,0,0,1-5.577,3.346,25.684,25.684,0,0,1-7.817,1H-71.24L-73.228-3.7h-8.378l7.475-38.462h16.112" transform="translate(83.189 43.75)" fill="#fff"/>
          </g>
          <g id="g3492" transform="translate(60.914 14.763)">
            <path id="path3494" d="M-79.629-149.642a.79.79,0,0,1-.611-.288.79.79,0,0,1-.167-.654L-77.1-167.6c.315-1.618.237-2.78-.218-3.271-.279-.3-1.116-.8-3.591-.8H-86.9l-4.158,21.394a.792.792,0,0,1-.777.641h-8.313a.791.791,0,0,1-.611-.288.791.791,0,0,1-.166-.654l7.475-38.462a.792.792,0,0,1,.777-.64h8.313a.792.792,0,0,1,.611.288.792.792,0,0,1,.166.655l-1.8,9.283h6.445c4.91,0,8.239.866,10.178,2.646,1.977,1.817,2.593,4.721,1.833,8.634l-3.478,17.9a.792.792,0,0,1-.777.641Z" transform="translate(100.938 189.688)"/>
          </g>
          <g id="g3496" transform="translate(60.123 13.971)">
            <path id="path3498" d="M-64.914,0h-8.312a1.583,1.583,0,0,0-1.554,1.281l-7.475,38.462a1.583,1.583,0,0,0,.333,1.309,1.583,1.583,0,0,0,1.222.576h8.313a1.584,1.584,0,0,0,1.554-1.281L-66.8,19.594h5.338c2.471,0,2.989.528,3.01.55.15.161.347.908.022,2.581l-3.307,17.018a1.583,1.583,0,0,0,.333,1.309,1.583,1.583,0,0,0,1.222.576h8.444a1.584,1.584,0,0,0,1.554-1.281l3.478-17.9c.816-4.2.118-7.353-2.074-9.368-2.092-1.921-5.6-2.855-10.714-2.855h-5.485l1.621-8.34A1.584,1.584,0,0,0-63.692.576,1.583,1.583,0,0,0-64.914,0m0,1.583L-66.9,11.809H-59.5q6.989,0,9.642,2.438t1.592,7.9l-3.478,17.9h-8.444l3.307-17.018q.564-2.9-.415-3.96t-4.171-1.057h-6.644L-72.39,40.045H-80.7l7.475-38.462h8.313" transform="translate(82.285)" fill="#fff"/>
          </g>
          <g id="g3500" transform="translate(90.643 24.989)">
            <path id="path3502" d="M-65.145-82.833c3.184,0,5.561-.587,7.065-1.745,1.488-1.145,2.515-3.13,3.054-5.9.5-2.588.311-4.395-.569-5.37-.9-1-2.843-1.5-5.777-1.5H-66.46L-69.28-82.833ZM-81.786-64.955a.791.791,0,0,1-.611-.288.791.791,0,0,1-.167-.654l7.475-38.462a.792.792,0,0,1,.777-.64H-58.2c5.064,0,8.832,1.375,11.2,4.087s3.117,6.537,2.186,11.326A18.093,18.093,0,0,1-46.749-84.2a18.033,18.033,0,0,1-3.565,4.468,15.641,15.641,0,0,1-5.868,3.516,26.58,26.58,0,0,1-8.061,1.037h-6.524L-72.63-65.6a.792.792,0,0,1-.777.641Z" transform="translate(82.578 105)"/>
          </g>
          <g id="g3504" transform="translate(89.851 24.197)">
            <path id="path3506" d="M-65.626-34.514h4.435c3.542,0,4.772.777,5.19,1.24.694.769.825,2.39.379,4.688-.5,2.573-1.429,4.4-2.76,5.422-1.362,1.049-3.577,1.58-6.582,1.58h-3.175Zm7.608-9.236H-74.129a1.583,1.583,0,0,0-1.554,1.281L-83.159-4.007A1.584,1.584,0,0,0-82.827-2.7a1.583,1.583,0,0,0,1.222.576h8.378A1.584,1.584,0,0,0-71.672-3.4l1.738-8.945h5.871a27.353,27.353,0,0,0,8.307-1.076,16.432,16.432,0,0,0,6.163-3.691,18.823,18.823,0,0,0,3.715-4.659,18.868,18.868,0,0,0,2.023-5.621c.98-5.042.184-9.079-2.367-12-2.526-2.891-6.5-4.358-11.8-4.358M-70.06-20h5.1q5.067,0,7.547-1.909t3.348-6.375q.832-4.288-.758-6.051T-61.191-36.1h-5.741L-70.06-20m12.042-22.167q7.27,0,10.605,3.816t2,10.655a17.221,17.221,0,0,1-1.851,5.151,17.177,17.177,0,0,1-3.41,4.271,14.8,14.8,0,0,1-5.577,3.346,25.684,25.684,0,0,1-7.817,1h-7.177L-73.226-3.7H-81.6l7.475-38.462h16.111" transform="translate(83.188 43.75)" fill="#fff"/>
          </g>
        </g>
      </g>
    </g>
  </g>
</svg>
