<svg xmlns="http://www.w3.org/2000/svg" xmlns:xlink="http://www.w3.org/1999/xlink" width="200" height="200" viewBox="0 0 200 200">
  <defs>
    <clipPath id="clip-path">
      <rect id="Rectangle_10" data-name="Rectangle 10" width="200" height="200" transform="translate(304 528)" fill="#fff" stroke="#707070" stroke-width="1"/>
    </clipPath>
  </defs>
  <g id="Mask_Group_10" data-name="Mask Group 10" transform="translate(-304 -528)" clip-path="url(#clip-path)">
    <g id="layer1" transform="translate(282.215 510.417)">
      <path id="path4515" d="M83.942,192.942c-.292-.352-2.779-9.763-5.525-20.912s-7.572-30.7-10.723-43.454-9.2-37.242-13.444-54.427-7.6-31.542-7.46-31.906a1.63,1.63,0,0,1,1.456-.661c.661,0,25.135,6.89,54.386,15.31l72.3,20.812c24.411,7.024,22.226,6.278,22.226,7.594,0,.836-13.394,13.986-55.707,54.692-30.639,29.476-55.994,53.592-56.344,53.592a1.813,1.813,0,0,1-1.169-.64ZM98.2,176.911c6.34-6.146,11.447-11.256,11.348-11.355-.261-.261-31.139-9.168-31.3-9.028-.317.28,7.673,31.832,8.027,31.7.216-.079,5.581-5.173,11.921-11.319ZM110.154,161.2c-.007-.46-1.679-7.468-3.714-15.573l-3.7-14.736-11.6,11.144c-6.652,6.388-11.34,11.234-10.984,11.356,1.27.434,29.313,8.575,29.658,8.61.2.02.352-.34.345-.8Zm15.186-10.4c6.022-5.784,11-10.731,11.067-10.994s-6.672-2.427-14.972-4.81-15.1-4.211-15.1-4.063c-.036.956,7.482,30.578,7.739,30.491C114.248,161.367,119.319,156.586,125.34,150.8Zm-33.4-14.238c4.3-4.156,7.745-7.633,7.648-7.727-.267-.258-30.2-8.871-30.344-8.731-.109.109,5.748,24.426,7.024,29.164l.5,1.87,3.673-3.51C82.465,145.7,87.638,140.721,91.941,136.565Zm45.95-.516c0-.515-7.235-29.836-7.544-30.574s-2.253.938-11.826,10.137c-6.3,6.056-11.439,11.182-11.414,11.39s6.8,2.349,15.057,4.756c15.5,4.521,15.728,4.582,15.728,4.29Zm18.369-14.99c4.714-4.534,8.478-8.324,8.365-8.423-.371-.323-30.722-8.911-30.891-8.741-.14.14,5.54,23.936,7.07,29.627l.495,1.839,3.2-3.029c1.758-1.666,7.052-6.738,11.766-11.272Zm-54.811,4.052c-.119-.329-1.914-7.428-3.987-15.776s-3.916-15.124-4.093-15.057c-.519.2-23.081,22.089-23,22.317.072.2,30.064,9.02,30.887,9.083.225.017.312-.238.193-.567Zm18.185-15.261c6.446-6.2,8.081-8.017,7.409-8.216-2.78-.827-27.844-7.935-28.893-8.194l-1.263-.312,3.88,15.55,3.88,15.55L108,121.018c1.847-1.765,7.08-6.791,11.629-11.169Zm-39.976-7.194C89.085,93.524,90.964,91.491,90.247,91.2c-2.172-.886-29.865-8.593-30.086-8.372-.2.2,6.5,28.365,7.217,30.336.12.329.354.6.519.6s5.458-5,11.761-11.1Zm85.483,5.964c.016-1.246-7.386-30.24-7.692-30.13-.726.261-22.464,21.369-22.394,21.745.065.347,28.11,8.631,29.484,8.709C164.867,108.964,165.138,108.817,165.141,108.62Zm15.7-11.188c6.352-6.087,11.492-11.114,11.424-11.169-.481-.39-30.636-8.832-30.835-8.633-.33.33,7.138,30.871,7.549,30.871.173,0,5.511-4.981,11.862-11.068Zm-55.87-14.043c-2.028-8.291-3.817-15.2-3.976-15.362s-5.354,4.612-11.544,10.6S98.3,89.625,98.43,89.753c.268.268,28.917,8.641,29.707,8.683C128.445,98.452,127.143,92.257,124.973,83.389Zm18.881,3.268c7.407-7.135,11.055-10.963,10.656-11.18-1.106-.6-29.578-8.668-29.8-8.444-.334.334,7.1,30.473,7.521,30.473.2,0,5.432-4.882,11.626-10.85Zm-51.845.932c.021-1.34-7.475-30.213-7.814-30.1-.687.229-22.779,21.539-22.558,21.76.266.266,29,8.635,29.769,8.67.329.015.6-.134.6-.331ZM107.28,76.046c6.084-5.889,10.89-10.861,10.679-11.051C117.57,64.645,89.1,56.4,88.276,56.4c-.246,0,1.137,6.4,3.072,14.22s3.636,14.719,3.778,15.33.446,1.04.675.956S101.2,81.934,107.28,76.046Zm-34.4-12.685c4.864-4.668,8.8-8.615,8.749-8.771-.2-.593-30.5-9.007-30.625-8.5-.112.45,6.671,28.566,7.324,30.355.177.486,1.039-.08,2.979-1.955C62.813,73.036,68.021,68.029,72.884,63.361Z" transform="translate(0 0)"/>
    </g>
  </g>
</svg>
