<svg xmlns="http://www.w3.org/2000/svg" xmlns:xlink="http://www.w3.org/1999/xlink" width="200" height="200" viewBox="0 0 200 200">
  <defs>
    <clipPath id="clip-path">
      <rect id="Rectangle_13" data-name="Rectangle 13" width="200" height="200" transform="translate(80 760)" fill="#fff" stroke="#707070" stroke-width="1"/>
    </clipPath>
  </defs>
  <g id="Mask_Group_14" data-name="Mask Group 14" transform="translate(-80 -760)" clip-path="url(#clip-path)">
    <g id="unity" transform="translate(104 783.94)">
      <path id="Path_29" data-name="Path 29" d="M96.687,76.065l26.6-45.932L136.14,76.065l-12.854,45.922-26.6-45.922ZM83.722,83.524l26.6,45.925-46.333-11.87L30.52,83.524Zm26.6-60.856L83.722,68.6H30.52L63.993,34.542,110.32,22.667Zm37.974,37.766L132.065.06,71.494,16.24,62.528,32l-18.194-.13L0,76.069l44.334,44.185h0l18.186-.135L71.5,135.883l60.564,16.177L148.293,91.7l-9.216-15.634,9.216-15.631Z" fill="#222c37"/>
    </g>
  </g>
</svg>
