<svg xmlns="http://www.w3.org/2000/svg" xmlns:xlink="http://www.w3.org/1999/xlink" width="200" height="200" viewBox="0 0 200 200">
  <defs>
    <clipPath id="clip-path">
      <rect id="Rectangle_2" data-name="Rectangle 2" width="200" height="200" transform="translate(808 280)" fill="#fff" stroke="#707070" stroke-width="1"/>
    </clipPath>
  </defs>
  <g id="Mask_Group_1" data-name="Mask Group 1" transform="translate(-808 -280)" clip-path="url(#clip-path)">
    <g id="g884" transform="translate(826.99 306.33)">
      <g id="g891" transform="translate(5.01 13.67)">
        <path id="path4" d="M67.518,55.523,51.649,37.775l48.575-17.681,7.561,20.773Z" transform="translate(-51.649 29.403)" fill="#f89920" fill-rule="evenodd"/>
        <path id="path6" d="M56.506,40.351l-.748,23.8,48.575-17.681L96.772,25.7Z" transform="translate(-40.753 44.255)" fill="#ffbe22" fill-rule="evenodd"/>
        <path id="path8" d="M184.822,16.363c6.931,20.08-15.4,46.465-50.14,59.11S65.873,82.259,58.274,62.421Z" transform="translate(-34.082 19.511)" fill="#f0670a" fill-rule="evenodd"/>
        <path id="path10" d="M185.755,30.731c-7.55-19.889-41.653-25.77-76.43-13.114S52.2,56.7,59.206,76.792Z" transform="translate(-35.014 5.142)" fill="#ffd00e" fill-rule="evenodd"/>
        <path id="path12" d="M184.815,16.364c4.32,13.435-19.926,34.36-54.557,46.963S63.6,75.49,58.276,62.42Z" transform="translate(-34.079 19.512)" fill="#f89920" fill-rule="evenodd"/>
        <path id="path14" d="M185.2,23.735c-5.246-13.131-37.319-13.6-72.008-.97s-58.957,33.6-54.537,47.028Z" transform="translate(-34.458 12.139)" fill="#ffbe22" fill-rule="evenodd"/>
        <path id="path16" d="M91.972,24.187C88.666,12.758,84.906,6.419,80.63,6.54c-8.267.235-11.046,26.448-8.37,60.036,2.7,33.945,9.718,59.444,18.462,59.213,5.214-.137,8.151-8.479,9.182-22.962.021-.3-.309-.091-.289-.393,0,0-.043-.528-.239-.541l-1.109-.072c-.908,14.062-3.66,22.165-7.589,22.269-7.187.188-14.126-25.037-16.722-57.648-2.556-32.077.2-58.017,6.724-58.2,3.091-.087,6.554,5.75,9.618,16.276,0,0,1.677-.323,1.675-.328Z" transform="translate(0.388 -6.538)" fill="#f0670a"/>
        <path id="path18" d="M67.3,9.612C60.262,13.95,70.961,38.038,90.072,65.79c19.313,28.045,38.138,46.621,45.6,42.049,4.168-2.555,3-10.311-2.37-22.019a.849.849,0,1,0-1.543.708c4.989,10.885,6.061,18,3.024,19.862-6.129,3.756-24.749-14.619-43.306-41.566C73.221,38.325,62.634,14.486,68.2,11.06c2.952-1.82,9.977,2.571,19.259,12.053a6.265,6.265,0,0,0,.829.76c.288.087.143-.522.374-.748a.849.849,0,0,0,.013-1.2C78.754,11.793,71.313,7.142,67.3,9.61Z" transform="translate(-15.911 -0.118)" fill="#f0670a"/>
      </g>
    </g>
  </g>
</svg>
